{"glyphs":{":":{"x_min":0,"x_max":228,"ha":228,"o":"m 75 427 l 75 528 l 153 528 l 153 427 z m 75 0 l 75 101 l 153 101 l 153 0 z"},"$":{"x_min":0,"x_max":456,"ha":456,"o":"m 208 10 q 121 14 72 59 q 22 104 9 185 l 77 203 q 81 177 90 156 q 100 135 115 119 q 131 104 154 94 q 176 84 208 82 l 208 324 l 199 327 q 168 335 139 348 q 109 360 86 380 q 63 400 49 432 q 35 463 35 511 q 35 552 47 582 q 60 612 83 633 q 106 653 138 664 q 169 674 208 676 l 208 740 l 257 740 l 257 676 q 297 674 326 663 q 355 652 375 632 q 396 613 409 585 q 422 557 431 520 l 361 504 q 353 550 328 575 q 304 601 257 606 l 257 389 q 257 389 303 375 q 326 368 347 358 q 368 348 385 334 q 403 320 416 301 q 428 282 436 255 q 443 229 443 193 q 443 156 432 124 q 420 92 398 67 q 375 43 340 28 q 305 13 257 10 l 257 -69 l 208 -69 z m 374 192 q 374 223 365 243 q 355 262 339 275 q 323 287 302 295 q 280 303 257 310 l 257 82 q 283 83 304 91 q 326 99 342 112 q 357 126 365 146 q 374 166 374 192 z m 104 512 q 104 485 111 467 q 119 449 133 437 q 147 425 167 417 q 186 409 208 402 l 208 607 q 179 605 159 597 q 139 589 126 577 q 114 564 109 547 q 104 531 104 512 z"},"?":{"x_min":0,"x_max":456,"ha":456,"o":"m 426 504 q 426 469 418 443 q 411 417 398 396 q 386 375 370 359 q 354 342 338 328 l 306 299 q 290 285 277 268 q 265 251 257 231 q 249 211 249 184 l 179 184 q 180 218 187 243 q 195 269 207 288 q 220 308 235 323 q 251 338 267 353 l 299 380 q 314 394 326 411 q 338 428 345 450 q 353 471 353 500 q 353 529 344 551 q 336 574 321 589 q 305 604 283 612 q 261 620 235 620 q 179 620 146 586 q 113 552 107 492 l 34 498 q 38 539 52 575 q 65 612 89 639 q 113 667 149 682 q 185 698 234 698 q 279 698 315 685 q 351 671 375 646 q 400 621 413 584 q 426 548 426 504 z m 175 0 l 175 98 l 253 98 l 253 0 z"},"<":{"x_min":0,"x_max":479,"ha":479,"o":"m 41 279 l 41 379 l 439 583 l 439 508 l 95 329 l 439 150 l 439 75 z"},"'":{"x_min":0,"x_max":157,"ha":157,"o":"m 107 472 l 50 472 l 42 688 l 116 688 z"},"=":{"x_min":0,"x_max":479,"ha":479,"o":"m 40 418 l 40 490 l 438 490 l 438 418 z m 40 168 l 40 240 l 438 240 l 438 168 z"},"a":{"x_min":0,"x_max":456,"ha":456,"o":"m 166 -10 q 100 -10 67 32 q 35 74 35 147 q 35 200 51 233 q 67 267 94 286 q 120 305 153 312 q 187 319 222 320 l 319 322 l 319 351 q 319 384 314 407 q 308 430 296 444 q 285 458 267 465 q 250 471 226 471 q 205 471 188 468 q 172 464 159 454 q 147 445 139 428 q 132 412 129 387 l 54 396 q 58 427 69 453 q 81 479 101 498 q 122 517 153 528 q 184 538 228 538 q 310 538 351 492 q 392 447 392 360 l 392 133 q 392 94 400 74 q 409 54 433 54 q 438 54 445 55 q 451 56 456 58 l 456 3 q 442 -1 429 -3 q 416 -5 400 -5 q 380 -5 365 2 q 351 8 342 22 q 333 35 328 55 q 323 75 321 101 l 319 101 q 308 76 294 55 q 280 35 261 20 q 243 6 219 -2 q 196 -10 166 -10 z m 182 56 q 217 56 242 72 q 268 87 285 111 q 302 135 311 163 q 319 191 319 217 l 319 261 l 240 259 q 214 258 190 254 q 166 250 148 238 q 130 226 120 204 q 109 182 109 146 q 109 103 128 80 q 147 56 182 56 z"},"L":{"x_min":0,"x_max":456,"ha":456,"o":"m 67 0 l 67 688 l 144 688 l 144 76 l 429 76 l 429 0 z"},"3":{"x_min":0,"x_max":456,"ha":456,"o":"m 420 190 q 420 143 407 105 q 395 68 371 43 q 346 17 311 4 q 275 -10 229 -10 q 176 -10 140 6 q 104 22 81 48 q 58 74 46 108 q 35 141 31 177 l 105 185 q 109 158 117 135 q 126 113 141 97 q 156 81 177 72 q 199 63 229 63 q 283 63 314 96 q 345 128 345 193 q 345 231 331 254 q 317 277 297 290 q 276 303 252 308 q 228 312 208 312 l 167 312 l 167 388 l 206 388 q 226 388 248 393 q 271 398 289 412 q 307 425 319 448 q 331 471 331 507 q 331 562 304 594 q 277 626 225 626 q 177 626 147 596 q 118 566 113 512 l 41 519 q 45 564 61 598 q 77 632 102 654 q 126 676 158 687 q 190 698 226 698 q 273 698 307 684 q 341 669 362 645 q 384 620 394 587 q 404 554 404 516 q 404 486 397 459 q 391 433 376 412 q 362 391 340 376 q 317 361 286 353 l 286 351 q 320 347 345 332 q 371 318 387 296 q 404 275 412 248 q 420 220 420 190 z"},";":{"x_min":0,"x_max":228,"ha":228,"o":"m 154 101 l 154 25 q 154 -1 153 -22 q 151 -43 147 -62 q 143 -80 137 -96 q 131 -112 123 -128 l 74 -128 q 92 -96 102 -64 q 111 -32 111 0 l 76 0 l 76 101 z m 76 427 l 76 528 l 154 528 l 154 427 z"},"J":{"x_min":0,"x_max":410,"ha":410,"o":"m 183 -10 q 115 -10 71 34 q 27 77 13 171 l 88 186 q 92 154 101 132 q 110 109 123 94 q 136 80 151 73 q 167 66 184 66 q 225 66 249 101 q 273 136 273 203 l 273 612 l 165 612 l 165 688 l 349 688 l 349 205 q 349 156 338 116 q 327 77 305 49 q 284 21 253 5 q 222 -10 183 -10 z"},"V":{"x_min":0,"x_max":547,"ha":547,"o":"m 313 0 l 234 0 l 3 688 l 84 688 l 240 204 q 240 204 252 160 l 263 121 q 263 121 274 82 q 274 82 284 120 q 284 120 295 159 l 308 204 l 463 688 l 543 688 z"},"\"":{"x_min":0,"x_max":291,"ha":291,"o":"m 248 472 l 190 472 l 183 688 l 256 688 z m 100 472 l 43 472 l 35 688 l 108 688 z"},"7":{"x_min":0,"x_max":456,"ha":456,"o":"m 415 617 q 373 538 337 465 q 301 392 276 318 q 250 244 236 166 q 221 88 221 0 l 146 0 q 146 83 162 162 q 178 241 205 318 q 232 394 269 468 q 305 542 345 613 l 42 613 l 42 688 l 415 688 z"},"S":{"x_min":0,"x_max":547,"ha":547,"o":"m 509 190 q 509 146 495 110 q 481 73 453 47 q 424 20 380 5 q 336 -10 276 -10 q 171 -10 112 35 q 53 80 37 165 l 111 183 q 117 156 128 134 q 140 112 160 96 q 180 81 209 72 q 238 63 279 63 q 313 63 342 70 q 370 77 390 92 q 411 106 422 130 q 434 153 434 185 q 434 219 421 240 q 408 261 385 274 q 363 288 331 297 l 261 317 q 238 324 214 331 q 190 339 168 349 q 146 360 127 374 q 108 388 94 408 q 80 428 72 454 q 63 480 63 514 q 63 563 80 598 q 96 633 125 655 q 154 678 193 688 q 232 698 278 698 q 330 698 367 688 q 405 678 430 658 q 456 638 471 609 q 487 579 496 540 l 421 524 q 416 549 405 568 q 394 588 377 601 q 359 614 335 621 q 310 628 277 628 q 238 628 211 619 q 185 611 168 596 q 152 582 145 562 q 138 542 138 519 q 138 488 151 469 q 164 449 185 436 q 207 422 235 414 q 264 405 295 396 q 295 396 347 381 q 373 374 397 363 q 420 353 441 338 q 461 324 477 304 q 492 283 501 255 q 509 228 509 190 z"},"}":{"x_min":0,"x_max":274,"ha":274,"o":"m 38 -145 q 74 -145 90 -118 q 106 -91 106 -40 l 106 135 q 106 160 111 180 q 117 201 127 217 q 137 232 152 243 q 166 254 183 259 l 183 260 q 167 265 152 275 q 138 286 128 302 q 117 317 112 338 q 106 358 106 383 l 106 557 q 106 609 90 635 q 74 662 38 662 l 14 662 l 14 725 l 66 725 q 119 725 146 688 q 172 650 172 582 l 172 405 q 172 375 178 353 q 184 332 195 318 q 206 304 222 297 q 238 291 259 290 l 259 228 q 238 227 222 220 q 206 213 195 199 q 184 186 178 164 q 172 143 172 112 l 172 -64 q 172 -98 166 -124 q 159 -150 146 -169 q 132 -188 112 -198 q 92 -208 66 -208 l 14 -208 l 14 -145 z"},"Z":{"x_min":0,"x_max":501,"ha":501,"o":"m 476 0 l 26 0 l 26 70 l 370 612 l 55 612 l 55 688 l 457 688 l 457 620 l 113 76 l 476 76 z"},"x":{"x_min":0,"x_max":410,"ha":410,"o":"m 321 0 l 204 217 l 87 0 l 9 0 l 164 271 l 17 528 l 96 528 l 204 323 l 312 528 l 392 528 l 245 272 l 401 0 z"},")":{"x_min":0,"x_max":273,"ha":273,"o":"m 222 258 q 222 189 214 128 q 205 66 187 9 q 169 -48 141 -102 q 113 -156 74 -207 l 5 -207 q 42 -156 70 -102 q 97 -48 115 9 q 132 67 141 129 q 150 191 150 259 q 150 327 141 389 q 132 451 115 508 q 97 565 70 619 q 42 673 5 725 l 74 725 q 113 673 141 620 q 169 566 187 509 q 205 452 214 390 q 222 328 222 260 z"},"&":{"x_min":0,"x_max":547,"ha":547,"o":"m 478 -6 q 439 -6 410 10 q 381 26 358 56 q 346 43 331 32 q 316 20 297 11 q 279 1 257 -4 q 235 -10 209 -10 q 163 -10 128 5 q 94 20 72 45 q 50 71 39 106 q 29 141 29 181 q 29 220 39 251 q 49 283 67 308 q 85 334 111 354 q 136 375 166 391 q 159 407 153 426 q 147 445 143 464 q 139 483 136 502 q 134 521 134 538 q 134 570 142 598 q 150 626 167 647 q 184 668 210 680 q 237 692 274 692 q 304 692 328 683 q 353 673 371 656 q 389 638 399 612 q 409 586 409 553 q 409 517 396 488 q 382 459 360 437 q 337 415 308 396 q 278 378 245 362 q 270 306 299 257 q 328 208 362 161 q 387 205 403 253 q 419 302 431 361 l 489 340 q 475 272 453 217 q 432 161 404 111 q 425 84 446 74 q 468 63 487 63 q 500 63 512 65 q 523 66 534 71 l 534 5 q 523 0 508 -3 q 493 -6 478 -6 z m 348 553 q 348 571 342 586 q 337 601 327 611 q 318 622 304 627 q 290 633 273 633 q 235 633 215 608 q 195 583 195 538 q 195 509 202 478 q 210 446 221 419 q 247 432 270 445 q 293 458 311 474 q 328 490 338 510 q 348 529 348 553 z m 318 106 q 283 157 250 213 q 217 270 190 329 q 145 306 121 270 q 96 233 96 182 q 96 155 103 132 q 110 109 125 92 q 139 74 161 64 q 183 54 212 54 q 229 54 245 59 q 261 63 275 71 q 288 78 299 87 q 311 97 318 106 z"},"_":{"x_min":0,"x_max":456,"ha":456,"o":"m -12 -199 l -12 -135 l 465 -135 l 465 -199 z"},"v":{"x_min":0,"x_max":410,"ha":410,"o":"m 246 0 l 160 0 l 3 528 l 80 528 l 175 185 q 175 185 182 158 l 189 126 l 197 95 l 203 69 q 203 69 209 95 l 217 126 q 221 142 225 157 q 229 173 232 184 l 331 528 l 407 528 z"},"O":{"x_min":0,"x_max":638,"ha":638,"o":"m 599 347 q 599 267 580 201 q 561 135 525 88 q 489 41 437 16 q 385 -10 318 -10 q 249 -10 196 17 q 144 43 109 91 q 74 139 57 204 q 39 270 39 347 q 39 428 57 493 q 76 558 111 603 q 147 649 199 674 q 251 698 319 698 q 387 698 439 673 q 491 648 527 603 q 562 557 581 492 q 599 427 599 347 z m 521 347 q 521 409 508 460 q 495 511 469 547 q 444 583 406 603 q 369 622 319 622 q 269 622 231 603 q 193 583 167 547 q 142 511 129 460 q 117 409 117 347 q 117 285 130 234 q 143 182 168 145 q 193 107 231 87 q 269 66 318 66 q 371 66 409 87 q 448 108 472 145 q 497 183 509 234 q 521 286 521 347 z"},"(":{"x_min":0,"x_max":273,"ha":273,"o":"m 51 260 q 51 328 59 390 q 68 452 86 509 q 104 566 132 620 q 160 673 199 725 l 268 725 q 230 673 203 619 q 176 565 158 508 q 141 451 132 389 q 123 327 123 259 q 123 191 132 129 q 141 67 158 9 q 176 -48 203 -102 q 230 -156 268 -207 l 199 -207 q 160 -156 132 -102 q 104 -48 86 9 q 68 66 59 128 q 51 189 51 258 z"},"C":{"x_min":0,"x_max":592,"ha":592,"o":"m 317 622 q 269 622 232 603 q 195 583 170 547 q 145 511 132 460 q 119 409 119 347 q 119 285 133 234 q 147 182 173 145 q 198 108 236 87 q 273 67 320 67 q 353 67 380 77 q 407 88 429 107 q 451 126 468 152 q 485 178 498 210 l 561 172 q 545 133 523 100 q 500 67 470 42 q 440 18 402 4 q 364 -10 316 -10 q 248 -10 197 17 q 145 43 111 91 q 76 139 59 204 q 42 270 42 347 q 42 428 60 493 q 78 558 113 603 q 148 649 199 674 q 250 698 316 698 q 406 698 466 655 q 527 612 555 528 l 483 499 q 475 523 461 545 q 448 567 427 584 q 407 602 379 612 q 352 622 317 622 z"},"W":{"x_min":0,"x_max":774,"ha":774,"o":"m 605 0 l 514 0 l 416 437 q 412 456 406 481 q 401 506 397 529 q 393 556 388 584 q 388 584 378 529 q 378 529 369 480 q 364 456 359 437 l 261 0 l 170 0 l 3 688 l 83 688 l 185 251 q 191 220 198 190 q 204 160 208 136 q 213 107 218 82 q 224 116 230 148 q 233 162 236 177 l 242 207 l 248 235 l 253 260 l 351 688 l 424 688 l 522 260 l 528 235 l 534 207 q 537 193 540 178 q 542 163 545 149 q 552 116 558 82 q 558 82 562 99 l 569 141 l 580 196 q 586 226 592 251 l 691 688 l 771 688 z"},"A":{"x_min":0,"x_max":547,"ha":547,"o":"m 467 0 l 403 201 l 146 201 l 81 0 l 1 0 l 232 688 l 319 688 l 545 0 z m 308 501 q 301 521 295 541 l 285 577 l 277 604 q 274 615 274 618 q 273 615 271 604 q 268 593 264 576 l 253 540 l 241 500 l 169 274 l 380 274 z"},"f":{"x_min":0,"x_max":228,"ha":228,"o":"m 145 464 l 145 0 l 73 0 l 73 464 l 12 464 l 12 528 l 73 528 l 73 588 q 73 617 77 641 q 82 666 93 684 q 105 703 125 713 q 146 724 178 724 q 191 724 205 722 q 219 721 229 718 l 229 651 q 222 652 213 654 q 205 655 197 655 q 181 655 171 649 q 161 644 155 634 q 149 624 147 609 q 145 595 145 576 l 145 528 l 229 528 l 229 464 z"},"Q":{"x_min":0,"x_max":638,"ha":638,"o":"m 599 347 q 599 274 583 214 q 568 154 539 108 q 510 63 468 34 q 425 6 372 -3 q 380 -34 391 -56 q 401 -78 415 -92 q 429 -106 445 -113 q 462 -119 482 -119 q 494 -119 506 -117 q 519 -115 528 -113 l 528 -178 q 513 -183 495 -186 q 477 -189 457 -189 q 422 -189 397 -177 q 372 -164 352 -141 q 333 -118 319 -84 q 305 -50 293 -8 q 230 -4 182 24 q 135 52 103 99 q 71 146 55 210 q 39 273 39 347 q 39 428 57 493 q 76 558 111 603 q 147 649 199 674 q 251 698 319 698 q 387 698 439 673 q 491 648 527 603 q 562 557 581 492 q 599 427 599 347 z m 521 347 q 521 409 508 460 q 495 511 469 547 q 444 583 406 603 q 369 622 319 622 q 269 622 231 603 q 193 583 167 547 q 142 511 129 460 q 117 409 117 347 q 117 285 130 234 q 143 182 168 145 q 193 107 231 87 q 269 66 318 66 q 371 66 409 87 q 448 108 472 145 q 497 183 509 234 q 521 286 521 347 z"},"w":{"x_min":0,"x_max":592,"ha":592,"o":"m 470 0 l 386 0 l 317 341 q 313 354 310 374 q 307 393 304 412 q 304 412 296 456 q 292 434 289 413 q 289 413 281 374 q 278 354 274 339 l 203 0 l 120 0 l -1 528 l 70 528 l 143 169 q 146 158 149 142 q 152 125 154 110 q 157 92 161 73 l 167 109 q 171 124 174 140 q 177 155 179 166 l 258 528 l 335 528 l 411 166 q 414 153 417 137 q 420 121 422 106 q 426 90 429 73 q 429 73 436 109 q 436 109 441 141 l 447 169 l 523 528 l 594 528 z"},"-":{"x_min":0,"x_max":273,"ha":273,"o":"m 37 227 l 37 305 l 236 305 l 236 227 z"},"E":{"x_min":0,"x_max":547,"ha":547,"o":"m 67 0 l 67 688 l 495 688 l 495 612 l 144 612 l 144 391 l 471 391 l 471 316 l 144 316 l 144 76 l 512 76 l 512 0 z"},"s":{"x_min":0,"x_max":410,"ha":410,"o":"m 380 146 q 380 109 369 80 q 357 51 334 31 q 312 11 279 1 q 247 -10 205 -10 q 167 -10 137 -3 q 106 4 84 20 q 61 36 46 61 q 30 87 23 124 l 86 139 q 96 97 125 77 q 153 57 205 57 q 228 57 247 61 q 267 65 281 74 q 295 84 303 100 q 311 116 311 139 q 311 163 301 178 q 292 194 276 204 q 259 214 236 222 l 184 239 q 158 247 133 257 q 107 268 86 284 q 66 301 53 326 q 40 351 40 389 q 40 461 82 499 q 125 537 206 537 q 277 537 320 506 q 362 475 373 407 l 308 397 q 305 418 295 432 q 285 446 271 454 q 258 463 241 467 q 224 470 206 470 q 157 470 134 452 q 110 434 110 397 q 110 376 119 362 q 127 348 143 339 q 158 329 180 322 l 228 307 q 228 307 263 296 q 281 290 298 281 q 315 272 330 261 q 345 250 356 233 q 367 217 374 196 q 380 174 380 146 z"},">":{"x_min":0,"x_max":479,"ha":479,"o":"m 41 75 l 41 150 l 384 329 l 41 508 l 41 583 l 439 379 l 439 279 z"},"l":{"x_min":0,"x_max":182,"ha":182,"o":"m 55 0 l 55 725 l 127 725 l 127 0 z"},"8":{"x_min":0,"x_max":456,"ha":456,"o":"m 420 192 q 420 148 409 111 q 397 74 374 47 q 351 21 314 5 q 278 -10 228 -10 q 178 -10 142 5 q 106 21 82 47 q 59 74 47 111 q 36 147 36 191 q 36 229 45 258 q 55 287 70 308 q 86 330 106 343 q 126 355 148 360 l 148 362 q 125 369 106 384 q 87 399 75 420 q 62 441 55 467 q 49 493 49 522 q 49 558 60 590 q 72 622 94 646 q 117 670 150 684 q 183 698 227 698 q 272 698 306 684 q 340 670 363 646 q 385 622 396 589 q 406 557 406 521 q 406 493 400 467 q 393 441 381 420 q 368 398 349 384 q 331 369 306 363 l 306 361 q 331 356 352 343 q 373 330 388 309 q 403 288 412 258 q 420 229 420 192 z m 332 516 q 332 542 326 563 q 321 585 308 600 q 296 616 276 624 q 256 633 227 633 q 198 633 179 624 q 159 616 146 600 q 134 585 128 563 q 123 542 123 516 q 123 496 127 474 q 131 453 143 435 q 155 417 175 406 q 195 395 228 395 q 262 395 282 406 q 303 417 314 435 q 325 453 328 474 q 332 496 332 516 z m 346 200 q 346 225 340 248 q 334 271 321 289 q 307 307 284 318 q 261 329 227 329 q 195 329 173 318 q 150 307 137 289 q 123 271 117 247 q 110 224 110 198 q 110 167 117 140 q 123 114 137 95 q 151 77 174 66 q 197 56 229 56 q 262 56 284 66 q 307 77 320 95 q 334 114 340 141 q 346 167 346 200 z"},"\\":{"x_min":0,"x_max":228,"ha":228,"o":"m 163 -10 l 0 725 l 63 725 l 228 -10 z"},"e":{"x_min":0,"x_max":456,"ha":456,"o":"m 107 246 q 107 204 116 169 q 125 134 139 109 q 154 84 177 70 q 199 56 231 56 q 278 56 307 79 q 335 102 345 137 l 408 115 q 401 93 389 71 q 377 49 356 31 q 336 13 305 2 q 275 -10 231 -10 q 135 -10 85 60 q 35 130 35 268 q 35 342 50 393 q 65 445 92 477 q 118 509 153 524 q 188 538 229 538 q 283 538 320 517 q 391 475 410 368 q 419 317 419 257 l 419 246 z m 347 313 q 347 401 314 437 q 281 473 228 473 q 189 473 153 441 q 109 403 107 313 z"},"b":{"x_min":0,"x_max":456,"ha":456,"o":"m 421 267 q 421 -10 262 -10 q 213 -10 180 12 q 148 34 127 82 l 126 82 q 126 69 126 56 q 125 42 125 30 l 124 10 q 123 2 123 0 l 53 0 q 53 4 54 15 q 54 25 54 40 q 55 55 55 72 q 55 90 55 109 l 55 725 l 127 725 l 127 518 q 127 503 127 490 q 127 477 126 466 q 126 454 125 443 l 127 443 q 147 494 180 516 q 213 538 262 538 q 344 538 383 471 q 421 403 421 267 z m 346 264 q 346 318 340 357 q 335 396 323 422 q 310 447 291 458 q 271 470 244 470 q 215 470 194 459 q 172 448 157 423 q 143 398 135 357 q 127 317 127 258 q 127 202 135 163 q 143 125 157 100 q 172 76 193 66 q 215 55 243 55 q 270 55 289 66 q 308 78 321 103 q 333 127 340 167 q 346 207 346 264 z"},"%":{"x_min":0,"x_max":729,"ha":729,"o":"m 700 212 q 700 151 689 109 q 679 67 662 42 q 645 16 621 5 q 598 -6 572 -6 q 545 -6 522 5 q 499 16 482 42 q 465 67 456 109 q 446 150 446 212 q 446 277 455 319 q 465 362 482 387 q 499 412 522 422 q 546 432 573 432 q 600 432 623 422 q 646 412 663 387 q 680 362 690 319 q 700 277 700 212 z m 211 0 l 149 0 l 518 688 l 581 688 z m 158 694 q 183 694 206 684 q 229 674 246 649 q 263 624 273 582 q 283 540 283 476 q 283 415 273 373 q 263 331 246 304 q 229 278 206 267 q 183 256 156 256 q 129 256 106 267 q 83 278 66 304 q 49 330 39 372 q 29 414 29 476 q 29 540 39 582 q 49 624 66 649 q 83 674 107 684 q 130 694 158 694 z m 641 212 q 641 260 636 292 q 632 324 623 343 q 615 362 602 370 q 589 378 573 378 q 557 378 544 370 q 531 362 522 343 q 513 324 509 292 q 504 260 504 212 q 504 166 509 134 q 514 103 522 84 q 531 64 543 56 q 556 48 572 48 q 588 48 601 56 q 613 64 622 84 q 631 103 636 134 q 641 166 641 212 z m 224 476 q 224 524 220 556 q 215 587 207 606 q 199 625 186 633 q 174 641 158 641 q 141 641 127 633 q 114 625 105 606 q 97 587 92 555 q 88 523 88 476 q 88 430 93 398 q 97 366 106 347 q 114 328 127 319 q 140 311 157 311 q 172 311 184 319 q 197 328 206 347 q 214 366 219 398 q 224 430 224 476 z"},"m":{"x_min":0,"x_max":683,"ha":683,"o":"m 308 0 l 308 335 q 308 374 303 399 q 299 425 290 441 q 281 457 266 464 q 250 470 228 470 q 205 470 187 459 q 168 448 156 427 q 143 407 135 376 q 128 346 128 306 l 128 0 l 57 0 l 57 416 q 57 416 57 450 q 57 469 56 485 q 56 501 55 513 q 55 525 55 528 l 123 528 q 123 526 123 515 q 124 504 124 490 q 125 477 125 462 q 125 448 125 438 l 127 438 q 137 461 148 479 q 159 498 174 511 q 189 524 208 531 q 228 538 253 538 q 303 538 331 514 q 360 490 371 438 l 373 438 q 382 461 394 479 q 406 498 422 511 q 438 524 458 531 q 478 538 504 538 q 537 538 560 527 q 584 517 599 494 q 615 472 622 436 q 629 401 629 352 l 629 0 l 558 0 l 558 335 q 558 374 554 399 q 550 425 540 441 q 531 457 516 464 q 500 470 479 470 q 456 470 437 460 q 419 449 406 429 q 393 408 386 377 q 379 347 379 306 l 379 0 z"},"#":{"x_min":0,"x_max":456,"ha":456,"o":"m 359 432 l 328 252 l 432 252 l 432 199 l 318 199 l 283 0 l 239 0 l 273 199 l 128 199 l 95 0 l 50 0 l 84 199 l 3 199 l 3 252 l 94 252 l 125 432 l 24 432 l 24 485 l 134 485 l 169 684 l 213 684 l 178 485 l 324 485 l 359 684 l 403 684 l 368 485 l 452 485 l 452 432 z m 170 432 l 138 252 l 283 252 l 314 432 z"},",":{"x_min":0,"x_max":228,"ha":228,"o":"m 154 107 l 154 25 q 154 -1 153 -22 q 151 -43 147 -62 q 143 -80 137 -96 q 131 -112 123 -128 l 74 -128 q 92 -96 102 -64 q 111 -32 111 0 l 76 0 l 76 107 z"},"n":{"x_min":0,"x_max":456,"ha":456,"o":"m 331 0 l 331 335 q 331 374 326 399 q 321 425 311 441 q 300 457 283 464 q 266 470 241 470 q 216 470 195 459 q 174 448 160 427 q 145 407 137 376 q 129 346 129 306 l 129 0 l 57 0 l 57 416 q 57 416 57 450 q 57 469 56 485 q 56 501 55 513 q 55 525 55 528 l 123 528 q 123 526 123 515 q 124 504 124 490 q 125 477 125 462 q 125 448 125 438 l 127 438 q 137 461 150 479 q 162 498 178 511 q 195 524 216 531 q 237 538 266 538 q 302 538 328 527 q 354 517 370 494 q 387 472 395 436 q 403 401 403 352 l 403 0 z"},"h":{"x_min":0,"x_max":456,"ha":456,"o":"m 127 438 q 139 465 153 484 q 167 502 184 515 q 201 527 221 532 q 241 538 266 538 q 307 538 334 524 q 360 511 376 486 q 391 461 397 427 q 403 393 403 352 l 403 0 l 331 0 l 331 335 q 331 369 327 394 q 324 419 314 436 q 304 453 287 462 q 269 470 241 470 q 216 470 195 459 q 174 448 160 427 q 145 407 137 377 q 129 348 129 312 l 129 0 l 57 0 l 57 725 l 129 725 l 129 536 q 129 520 128 504 q 128 488 127 474 q 127 460 126 451 q 126 441 125 438 z"},"z":{"x_min":0,"x_max":410,"ha":410,"o":"m 20 0 l 20 67 l 284 460 l 36 460 l 36 528 l 366 528 l 366 461 l 101 68 l 380 68 l 380 0 z"},"B":{"x_min":0,"x_max":547,"ha":547,"o":"m 503 194 q 503 142 487 105 q 470 68 442 45 q 413 21 375 11 q 338 0 296 0 l 67 0 l 67 688 l 272 688 q 319 688 356 678 q 393 669 418 648 q 444 628 457 596 q 471 565 471 521 q 471 492 464 467 q 458 441 444 421 q 431 400 410 385 q 390 370 363 363 q 397 358 424 344 q 450 330 468 308 q 485 286 494 257 q 503 228 503 194 z m 394 510 q 394 565 363 589 q 332 613 272 613 l 144 613 l 144 396 l 272 396 q 306 396 329 404 q 353 412 367 427 q 381 441 388 462 q 394 483 394 510 z m 426 201 q 426 234 417 257 q 407 280 388 294 q 370 309 344 316 q 318 323 286 323 l 144 323 l 144 75 l 292 75 q 322 75 346 81 q 371 86 388 101 q 406 116 416 140 q 426 165 426 201 z"},"K":{"x_min":0,"x_max":547,"ha":547,"o":"m 443 0 l 217 332 l 144 264 l 144 0 l 67 0 l 67 688 l 144 688 l 144 343 l 416 688 l 506 688 l 266 389 l 538 0 z"},"R":{"x_min":0,"x_max":592,"ha":592,"o":"m 466 0 l 319 286 l 144 286 l 144 0 l 67 0 l 67 688 l 333 688 q 380 688 417 675 q 455 661 480 636 q 505 610 518 574 q 531 537 531 491 q 531 458 523 427 q 516 395 499 369 q 482 342 456 323 q 430 304 394 296 l 554 0 z m 455 490 q 455 521 446 544 q 437 567 420 583 q 403 598 379 606 q 355 613 325 613 l 144 613 l 144 359 l 328 359 q 361 359 385 369 q 409 379 425 397 q 440 415 447 438 q 455 462 455 490 z"},"T":{"x_min":0,"x_max":501,"ha":501,"o":"m 288 612 l 288 0 l 212 0 l 212 612 l 19 612 l 19 688 l 482 688 l 482 612 z"},"P":{"x_min":0,"x_max":547,"ha":547,"o":"m 503 481 q 503 436 491 397 q 479 358 455 330 q 431 301 394 285 q 358 268 310 268 l 144 268 l 144 0 l 67 0 l 67 688 l 305 688 q 354 688 392 673 q 429 658 454 631 q 479 604 491 566 q 503 527 503 481 z m 427 480 q 427 545 394 579 q 361 613 295 613 l 144 613 l 144 342 l 299 342 q 365 342 396 377 q 427 413 427 480 z"},"|":{"x_min":0,"x_max":213,"ha":213,"o":"m 73 -212 l 73 725 l 140 725 l 140 -212 z"},"t":{"x_min":0,"x_max":228,"ha":228,"o":"m 222 4 q 206 -1 188 -5 q 171 -8 149 -8 q 62 -8 62 112 l 62 464 l 12 464 l 12 528 l 65 528 l 86 646 l 135 646 l 135 528 l 215 528 l 215 464 l 135 464 l 135 131 q 135 93 145 77 q 155 62 180 62 q 190 62 200 64 q 210 66 222 69 z"},"M":{"x_min":0,"x_max":683,"ha":683,"o":"m 547 0 l 547 459 q 547 484 547 510 q 548 536 548 557 q 549 582 551 605 q 545 581 539 556 q 539 556 527 512 q 521 488 515 469 l 370 0 l 316 0 l 168 469 q 166 476 163 486 l 158 507 l 151 529 l 146 552 q 139 578 132 605 q 133 578 134 551 q 135 528 135 503 q 135 478 135 459 l 135 0 l 67 0 l 67 688 l 168 688 l 318 211 q 321 201 325 186 q 329 170 332 154 q 336 138 339 124 q 342 109 343 102 q 344 109 347 124 q 351 139 355 155 l 363 186 q 367 201 371 211 l 518 688 l 616 688 l 616 0 z"},"g":{"x_min":0,"x_max":456,"ha":456,"o":"m 219 -208 q 182 -208 153 -198 q 125 -189 104 -172 q 83 -154 71 -130 q 58 -106 52 -77 l 125 -64 q 132 -101 157 -121 q 181 -141 221 -141 q 246 -141 266 -132 q 286 -124 300 -106 q 314 -87 322 -58 q 329 -29 329 13 l 329 98 l 328 98 q 320 78 309 60 q 297 42 280 27 q 263 13 240 5 q 218 -4 189 -4 q 148 -4 118 13 q 89 30 70 63 q 52 97 43 147 q 35 197 35 263 q 35 327 43 377 q 52 428 71 464 q 90 499 121 518 q 152 537 197 537 q 243 537 277 511 q 311 485 329 438 l 330 438 q 330 450 331 465 q 331 480 332 494 q 333 507 333 517 q 334 527 335 528 l 403 528 q 403 524 402 513 q 402 503 402 488 q 401 474 401 456 q 401 438 401 419 l 401 15 q 401 -96 356 -152 q 312 -208 219 -208 z m 329 264 q 329 319 319 359 q 310 398 293 423 q 277 448 257 459 q 236 471 215 471 q 187 471 167 459 q 147 448 134 423 q 121 397 115 358 q 109 319 109 264 q 109 207 115 168 q 121 129 134 105 q 147 82 167 71 q 186 61 213 61 q 235 61 256 72 q 276 83 293 108 q 309 132 319 171 q 329 209 329 264 z"},"j":{"x_min":0,"x_max":182,"ha":182,"o":"m 55 641 l 55 725 l 127 725 l 127 641 z m 127 -65 q 127 -96 123 -122 q 119 -147 108 -167 q 97 -186 78 -197 q 60 -208 31 -208 q 17 -208 4 -207 q -9 -206 -20 -203 l -20 -135 q -15 -136 -8 -137 q 0 -138 5 -138 q 20 -138 30 -133 q 40 -128 45 -118 q 51 -107 53 -91 q 55 -75 55 -52 l 55 528 l 127 528 z"},"i":{"x_min":0,"x_max":182,"ha":182,"o":"m 55 641 l 55 725 l 127 725 l 127 641 z m 55 0 l 55 528 l 127 528 l 127 0 z"},"y":{"x_min":0,"x_max":410,"ha":410,"o":"m 242 0 q 227 -48 211 -86 q 195 -125 175 -152 q 156 -179 132 -193 q 108 -208 77 -208 q 63 -208 51 -207 q 40 -206 27 -202 l 27 -136 q 35 -138 44 -138 q 54 -139 61 -139 q 92 -139 119 -110 q 146 -82 167 -19 l 174 2 l 2 528 l 79 528 l 170 236 q 170 236 181 201 l 193 157 q 199 135 204 118 q 208 100 209 96 q 210 101 215 117 l 226 152 l 237 192 q 244 212 248 227 l 333 528 l 409 528 z"},"@":{"x_min":0,"x_max":832,"ha":832,"o":"m 761 369 q 761 298 748 240 q 734 182 711 140 q 687 98 654 74 q 621 51 583 51 q 560 51 544 57 q 528 64 518 75 q 508 87 504 103 q 500 118 500 137 q 500 144 500 155 q 500 165 500 171 l 498 171 q 488 149 475 127 q 461 105 442 89 q 424 72 400 61 q 377 51 349 51 q 315 51 290 65 q 265 79 249 104 q 232 129 224 164 q 216 198 216 239 q 216 297 231 351 q 245 405 271 447 q 298 488 335 513 q 372 538 417 538 q 441 538 461 531 q 480 524 495 513 q 509 501 520 485 q 531 468 538 449 l 540 449 l 556 527 l 618 527 l 572 280 q 564 239 561 209 q 557 180 557 156 q 557 133 566 122 q 574 110 589 110 q 614 110 636 130 q 657 150 673 185 q 689 219 698 266 q 707 313 707 368 q 707 431 690 485 q 673 539 641 579 q 609 618 561 641 q 514 663 452 663 q 398 663 353 647 q 307 632 270 604 q 233 575 206 536 q 178 497 159 450 q 140 403 131 349 q 121 296 121 240 q 121 171 138 113 q 155 55 188 13 q 221 -29 270 -52 q 318 -76 382 -76 q 424 -76 460 -68 q 497 -60 527 -48 q 558 -36 582 -22 q 605 -8 623 3 l 645 -51 q 625 -66 598 -81 q 571 -97 538 -109 q 505 -122 466 -130 q 426 -138 382 -138 q 306 -138 247 -110 q 188 -82 147 -32 q 106 19 85 88 q 64 157 64 240 q 64 308 77 370 q 90 433 113 486 q 137 540 171 584 q 205 628 248 659 q 291 690 342 708 q 393 725 451 725 q 531 725 590 696 q 648 667 686 618 q 725 569 743 505 q 761 440 761 369 z m 519 365 q 519 389 512 410 q 505 430 492 445 q 480 459 462 468 q 444 476 422 476 q 388 476 362 455 q 335 434 318 400 q 301 367 292 324 q 283 282 283 240 q 283 181 302 148 q 321 115 360 115 q 388 115 412 130 q 436 145 455 170 q 474 195 488 227 q 502 259 509 294 q 513 312 516 331 q 519 351 519 365 z"},".":{"x_min":0,"x_max":228,"ha":228,"o":"m 75 0 l 75 107 l 153 107 l 153 0 z"},"p":{"x_min":0,"x_max":456,"ha":456,"o":"m 421 267 q 421 207 414 156 q 406 105 387 68 q 368 32 338 11 q 307 -10 262 -10 q 216 -10 181 12 q 146 33 128 82 l 125 82 q 126 81 126 73 q 126 65 127 54 q 127 42 127 28 q 127 13 127 -1 l 127 -208 l 55 -208 l 55 420 q 55 439 55 457 q 55 475 54 489 q 54 503 54 514 q 53 524 53 528 l 123 528 q 123 527 124 518 l 125 497 q 125 484 126 470 q 126 456 126 443 l 128 443 q 138 469 151 487 q 164 504 180 516 q 197 527 217 532 q 237 538 262 538 q 307 538 338 518 q 368 499 387 463 q 406 428 414 378 q 421 328 421 267 z m 346 265 q 346 313 341 352 q 336 390 324 416 q 312 442 293 456 q 273 470 244 470 q 220 470 198 461 q 177 453 161 430 q 146 406 136 365 q 127 324 127 258 q 127 202 135 163 q 143 124 157 100 q 172 76 193 66 q 215 55 243 55 q 273 55 293 69 q 312 83 324 110 q 336 137 341 176 q 346 215 346 265 z"},"X":{"x_min":0,"x_max":547,"ha":547,"o":"m 445 0 l 276 301 l 103 0 l 19 0 l 233 357 l 35 688 l 119 688 l 276 418 l 429 688 l 513 688 l 320 361 l 530 0 z"},"*":{"x_min":0,"x_max":319,"ha":319,"o":"m 183 544 l 288 594 l 306 530 l 193 494 l 267 372 l 220 337 l 160 463 l 97 338 l 50 373 l 125 494 l 13 530 l 31 595 l 138 543 l 133 688 l 188 688 z"},"Y":{"x_min":0,"x_max":547,"ha":547,"o":"m 311 285 l 311 0 l 235 0 l 235 285 l 18 688 l 102 688 l 274 360 l 445 688 l 529 688 z"},"c":{"x_min":0,"x_max":410,"ha":410,"o":"m 110 267 q 110 221 116 183 q 121 145 134 117 q 146 90 167 75 q 188 60 220 60 q 258 60 284 85 q 310 110 315 163 l 389 157 q 385 125 373 94 q 361 64 340 41 q 320 18 290 4 q 260 -10 222 -10 q 171 -10 135 11 q 99 32 77 69 q 55 106 45 156 q 35 206 35 265 q 35 318 42 359 q 49 399 62 430 q 75 460 93 481 q 110 502 131 514 q 152 527 175 532 q 197 538 221 538 q 257 538 286 526 q 314 514 335 492 q 355 471 368 442 q 381 414 386 380 l 312 374 q 307 417 284 443 q 261 469 219 469 q 188 469 167 457 q 146 444 134 419 q 121 394 116 356 q 110 318 110 267 z"},"!":{"x_min":0,"x_max":228,"ha":228,"o":"m 144 194 l 84 194 l 75 688 l 153 688 z m 74 0 l 74 98 l 152 98 l 152 0 z"},"/":{"x_min":0,"x_max":228,"ha":228,"o":"m 0 -10 l 165 725 l 228 725 l 65 -10 z"},"[":{"x_min":0,"x_max":228,"ha":228,"o":"m 59 -208 l 59 725 l 222 725 l 222 662 l 128 662 l 128 -145 l 222 -145 l 222 -208 z"},"6":{"x_min":0,"x_max":456,"ha":456,"o":"m 420 225 q 420 173 408 130 q 396 87 374 56 q 351 25 316 8 q 282 -10 238 -10 q 188 -10 152 13 q 115 36 90 79 q 66 123 54 185 q 42 248 42 328 q 42 420 55 489 q 69 559 95 605 q 121 651 159 675 q 196 698 244 698 q 272 698 298 691 q 323 684 343 667 q 364 651 379 624 q 395 597 404 558 l 335 543 q 324 587 300 607 q 275 627 243 627 q 213 627 189 610 q 165 593 148 559 q 131 525 122 474 q 113 422 113 354 q 133 398 168 422 q 204 445 250 445 q 289 445 320 430 q 351 415 373 386 q 396 357 408 317 q 420 276 420 225 z m 347 221 q 347 257 340 286 q 333 314 318 335 q 304 355 282 366 q 261 377 233 377 q 213 377 193 370 q 173 363 157 347 q 141 331 131 305 q 121 279 121 242 q 121 204 129 171 q 137 138 152 114 q 167 89 188 75 q 209 61 235 61 q 261 61 282 72 q 303 83 317 104 q 332 125 339 154 q 347 184 347 221 z"},"r":{"x_min":0,"x_max":273,"ha":273,"o":"m 57 0 l 57 405 q 57 405 57 439 q 57 457 56 473 q 56 489 55 503 q 55 517 54 528 l 123 528 q 123 517 124 503 q 124 488 125 473 q 125 458 125 444 l 125 420 l 127 420 q 135 451 144 473 q 152 495 164 510 q 175 524 191 531 q 208 538 230 538 q 239 538 247 536 q 255 535 259 533 l 259 453 q 252 455 242 456 q 233 458 221 458 q 196 458 178 444 q 161 430 150 406 q 139 382 134 348 q 129 315 129 275 l 129 0 z"},"2":{"x_min":0,"x_max":456,"ha":456,"o":"m 41 0 l 41 62 q 62 119 91 163 q 121 207 153 242 q 186 277 217 308 q 249 338 275 368 q 300 398 316 432 q 332 465 332 507 q 332 536 325 558 q 317 581 304 596 q 291 611 271 618 q 252 626 229 626 q 208 626 188 619 q 169 611 155 597 q 140 582 130 560 q 121 539 118 510 l 44 518 q 48 555 61 588 q 75 621 98 645 q 121 670 154 684 q 186 698 229 698 q 271 698 304 686 q 337 674 359 650 q 382 626 394 591 q 406 556 406 510 q 406 475 396 444 q 386 413 369 384 q 352 356 329 330 q 307 303 282 278 l 233 229 q 208 204 186 179 q 165 154 147 128 q 130 103 121 75 l 415 75 l 415 0 z"},"{":{"x_min":0,"x_max":274,"ha":274,"o":"m 206 -208 q 180 -208 160 -198 q 140 -188 126 -169 q 113 -150 106 -124 q 100 -98 100 -64 l 100 112 q 100 143 94 164 q 88 186 77 199 q 66 213 50 220 q 34 227 14 228 l 14 290 q 34 291 50 297 q 66 304 77 318 q 88 332 94 353 q 100 375 100 405 l 100 582 q 100 650 126 688 q 153 725 206 725 l 259 725 l 259 662 l 234 662 q 198 662 182 635 q 167 609 167 557 l 167 383 q 167 358 161 338 q 155 317 145 302 q 134 286 120 275 q 106 265 89 260 l 89 259 q 106 254 121 243 q 135 232 145 217 q 155 201 161 180 q 167 160 167 135 l 167 -40 q 167 -91 182 -118 q 198 -145 234 -145 l 259 -145 l 259 -208 z"},"9":{"x_min":0,"x_max":456,"ha":456,"o":"m 417 358 q 417 266 403 197 q 389 128 362 82 q 336 36 298 13 q 260 -10 213 -10 q 181 -10 155 -2 q 128 6 108 23 q 88 41 73 68 q 59 95 50 134 l 119 147 q 130 103 154 82 q 178 61 214 61 q 244 61 268 78 q 292 95 309 128 q 326 162 335 213 q 345 264 346 332 q 337 309 323 291 q 308 273 290 260 q 271 248 250 241 q 228 235 206 235 q 167 235 136 252 q 105 269 84 299 q 62 329 50 372 q 39 415 39 467 q 39 520 51 563 q 63 606 88 636 q 112 666 147 682 q 182 698 226 698 q 320 698 369 613 q 417 528 417 358 z m 339 443 q 339 481 331 515 q 324 548 309 573 q 295 598 273 613 q 252 627 224 627 q 198 627 177 616 q 156 604 142 584 q 127 563 120 533 q 112 503 112 467 q 112 432 119 402 q 125 373 140 351 q 154 329 175 317 q 195 304 223 304 q 243 304 264 312 q 284 321 301 338 q 317 355 328 381 q 339 407 339 443 z"}," ":{"x_min":0,"x_max":228,"ha":228,"o":""},"I":{"x_min":0,"x_max":228,"ha":228,"o":"m 76 0 l 76 688 l 152 688 l 152 0 z"},"H":{"x_min":0,"x_max":592,"ha":592,"o":"m 449 0 l 449 319 l 144 319 l 144 0 l 67 0 l 67 688 l 144 688 l 144 397 l 449 397 l 449 688 l 525 688 l 525 0 z"},"4":{"x_min":0,"x_max":456,"ha":456,"o":"m 353 156 l 353 0 l 285 0 l 285 156 l 19 156 l 19 224 l 277 688 l 353 688 l 353 225 l 432 225 l 432 156 z m 285 589 q 284 586 280 579 l 273 563 l 266 546 q 261 537 258 531 l 113 271 q 111 267 107 261 l 100 248 l 92 235 q 88 229 85 225 l 285 225 z"},"~":{"x_min":0,"x_max":479,"ha":479,"o":"m 338 270 q 310 270 281 281 q 252 292 223 304 q 171 326 136 326 q 121 326 108 323 q 95 320 83 315 q 71 309 60 301 q 48 293 37 283 l 37 353 q 57 372 83 383 q 110 394 142 394 q 158 394 174 391 q 190 388 206 383 q 221 378 236 372 l 266 359 q 274 355 284 352 l 305 344 q 315 341 325 339 q 335 337 344 337 q 372 337 397 349 q 421 361 442 382 l 442 309 q 430 298 418 291 q 406 283 394 279 q 381 274 368 272 q 354 270 338 270 z"},"D":{"x_min":0,"x_max":592,"ha":592,"o":"m 553 351 q 553 265 531 199 q 510 134 473 90 q 437 45 386 23 q 336 0 278 0 l 67 0 l 67 688 l 254 688 q 319 688 374 668 q 429 648 469 607 q 508 566 531 502 q 553 439 553 351 z m 476 351 q 476 421 459 470 q 443 520 413 552 q 384 583 343 598 q 301 613 252 613 l 144 613 l 144 75 l 270 75 q 314 75 352 92 q 389 110 417 145 q 444 179 460 231 q 476 283 476 351 z"},"^":{"x_min":0,"x_max":385,"ha":385,"o":"m 315 329 l 191 638 l 69 329 l 4 329 l 151 688 l 232 688 l 381 329 z"},"0":{"x_min":0,"x_max":456,"ha":456,"o":"m 424 344 q 424 245 408 177 q 393 110 366 68 q 340 26 304 8 q 268 -10 227 -10 q 186 -10 150 8 q 115 26 88 68 q 62 109 47 177 q 32 245 32 344 q 32 448 47 516 q 62 584 88 625 q 115 666 151 682 q 187 698 229 698 q 270 698 305 682 q 341 666 367 625 q 394 584 409 516 q 424 448 424 344 z m 351 344 q 351 426 343 481 q 335 535 319 568 q 304 600 281 614 q 258 627 229 627 q 199 627 176 613 q 152 600 137 567 q 121 535 113 480 q 105 426 105 344 q 105 265 113 211 q 121 157 137 124 q 153 91 176 76 q 199 62 228 62 q 256 62 279 76 q 302 91 318 124 q 333 157 342 211 q 351 265 351 344 z"},"F":{"x_min":0,"x_max":501,"ha":501,"o":"m 144 612 l 144 356 l 458 356 l 458 279 l 144 279 l 144 0 l 67 0 l 67 688 l 468 688 l 468 612 z"},"`":{"x_min":0,"x_max":273,"ha":273,"o":"m 174 586 l 42 722 l 42 736 l 125 736 l 212 596 l 212 586 z"},"k":{"x_min":0,"x_max":410,"ha":410,"o":"m 327 0 l 180 241 l 127 188 l 127 0 l 55 0 l 55 725 l 127 725 l 127 272 l 318 528 l 402 528 l 226 301 l 411 0 z"},"u":{"x_min":0,"x_max":456,"ha":456,"o":"m 125 528 l 125 193 q 125 155 130 129 q 135 103 145 87 q 156 71 173 65 q 190 58 215 58 q 240 58 261 69 q 282 80 296 101 q 311 122 319 152 q 327 183 327 222 l 327 528 l 399 528 l 399 113 q 399 113 399 78 q 399 60 400 43 q 400 27 401 15 q 401 3 401 0 l 333 0 q 333 2 333 13 q 333 24 332 38 q 331 52 331 66 q 331 81 331 90 l 329 90 q 319 67 306 49 q 294 30 278 17 q 261 4 240 -3 q 219 -10 190 -10 q 154 -10 128 1 q 103 12 86 34 q 69 57 61 92 q 53 127 53 176 l 53 528 z"},"]":{"x_min":0,"x_max":228,"ha":228,"o":"m 6 -208 l 6 -145 l 100 -145 l 100 662 l 6 662 l 6 725 l 169 725 l 169 -208 z"},"U":{"x_min":0,"x_max":592,"ha":592,"o":"m 292 -10 q 246 -10 205 5 q 163 21 132 52 q 100 84 82 134 q 63 183 63 250 l 63 688 l 140 688 l 140 258 q 140 206 151 169 q 163 133 183 110 q 203 87 231 76 q 259 66 292 66 q 325 66 354 77 q 383 87 405 111 q 427 134 440 172 q 453 210 453 264 l 453 688 l 529 688 l 529 259 q 529 190 510 139 q 491 89 459 56 q 427 22 384 6 q 341 -10 292 -10 z"},"o":{"x_min":0,"x_max":456,"ha":456,"o":"m 421 265 q 421 126 371 58 q 321 -10 226 -10 q 181 -10 145 7 q 110 23 85 58 q 61 92 48 143 q 35 195 35 265 q 35 538 229 538 q 279 538 316 521 q 353 504 376 470 q 399 436 410 384 q 421 333 421 265 z m 346 265 q 346 326 338 366 q 331 406 315 430 q 300 454 279 464 q 257 473 230 473 q 202 473 180 463 q 158 453 142 429 q 126 405 118 365 q 110 325 110 265 q 110 203 119 163 q 128 123 143 99 q 159 75 180 65 q 201 55 226 55 q 253 55 276 65 q 298 74 313 98 q 329 122 337 163 q 346 203 346 265 z"},"N":{"x_min":0,"x_max":592,"ha":592,"o":"m 433 0 l 131 586 q 131 586 133 539 q 134 519 135 496 q 135 474 135 457 l 135 0 l 67 0 l 67 688 l 156 688 l 461 98 q 460 122 458 146 q 458 167 457 191 q 456 215 456 237 l 456 688 l 525 688 l 525 0 z"},"+":{"x_min":0,"x_max":479,"ha":479,"o":"m 269 297 l 269 88 l 210 88 l 210 297 l 40 297 l 40 368 l 210 368 l 210 577 l 269 577 l 269 368 l 438 368 l 438 297 z"},"G":{"x_min":0,"x_max":638,"ha":638,"o":"m 42 347 q 42 428 59 493 q 77 558 113 603 q 148 649 200 674 q 253 698 322 698 q 375 698 414 687 q 453 676 481 655 q 510 634 530 604 q 550 574 564 536 l 492 510 q 481 535 467 556 q 452 577 431 591 q 410 606 383 614 q 355 622 320 622 q 269 622 231 603 q 193 583 168 547 q 144 511 131 460 q 119 409 119 347 q 119 285 132 234 q 146 182 171 145 q 197 107 236 87 q 275 66 326 66 q 359 66 387 73 q 415 80 438 91 q 460 102 478 115 q 495 128 506 142 l 506 266 l 338 266 l 338 344 l 577 344 l 577 107 q 558 83 532 62 q 507 41 476 25 q 444 9 406 0 q 369 -10 326 -10 q 254 -10 201 17 q 148 43 113 91 q 77 139 59 204 q 42 270 42 347 z"},"q":{"x_min":0,"x_max":456,"ha":456,"o":"m 194 -10 q 111 -10 73 58 q 35 126 35 262 q 35 399 74 469 q 113 538 194 538 q 221 538 241 532 q 262 526 278 515 q 294 503 307 486 q 319 469 329 446 l 330 446 q 330 458 330 473 q 331 488 331 501 q 332 515 333 524 q 333 534 334 535 l 404 535 q 403 527 402 492 q 401 457 401 391 l 401 -208 l 329 -208 l 329 7 q 329 20 329 33 q 329 47 330 59 q 330 59 331 87 l 330 87 q 319 62 307 44 q 294 25 278 13 q 261 1 240 -4 q 220 -10 194 -10 z m 329 271 q 329 328 321 367 q 312 406 297 430 q 282 453 261 463 q 239 473 213 473 q 185 473 166 461 q 146 448 134 423 q 122 397 116 358 q 110 318 110 265 q 110 212 116 173 q 121 134 133 108 q 146 83 165 71 q 184 58 212 58 q 236 58 258 67 q 279 76 295 100 q 311 124 320 165 q 329 206 329 271 z"},"d":{"x_min":0,"x_max":456,"ha":456,"o":"m 329 85 q 309 34 276 12 q 243 -10 194 -10 q 112 -10 73 58 q 35 125 35 262 q 35 538 194 538 q 243 538 276 516 q 309 494 329 446 l 330 446 q 330 451 329 462 l 329 483 q 329 495 329 505 l 329 520 l 329 725 l 401 725 l 401 109 q 401 90 401 72 q 401 55 402 40 q 402 25 402 15 q 403 4 403 0 l 334 0 q 333 5 333 14 q 333 23 332 35 q 331 46 331 59 q 331 72 331 85 z m 110 265 q 110 210 116 171 q 121 132 134 107 q 146 82 165 70 q 185 58 212 58 q 241 58 262 69 q 284 81 299 106 q 313 131 321 171 q 329 212 329 271 q 329 327 321 365 q 313 404 299 428 q 284 452 262 463 q 241 473 213 473 q 187 473 167 462 q 148 451 135 426 q 123 401 116 361 q 110 321 110 265 z"},"1":{"x_min":0,"x_max":456,"ha":456,"o":"m 62 0 l 62 75 l 206 75 l 206 604 l 79 493 l 79 576 l 212 688 l 279 688 l 279 75 l 416 75 l 416 0 z"},"5":{"x_min":0,"x_max":456,"ha":456,"o":"m 421 224 q 421 172 409 129 q 396 86 371 55 q 346 24 308 7 q 271 -10 221 -10 q 177 -10 144 3 q 111 16 88 38 q 65 60 52 90 q 39 120 33 154 l 105 164 q 110 145 118 126 q 126 108 140 94 q 154 79 174 71 q 194 62 223 62 q 251 62 274 73 q 297 83 313 104 q 329 124 338 154 q 347 184 347 222 q 347 254 338 281 q 330 307 314 326 q 299 346 276 356 q 253 367 225 367 q 207 367 191 363 q 176 359 163 353 q 150 346 140 337 q 129 328 120 318 l 49 318 l 68 688 l 389 688 l 389 613 l 134 613 l 123 395 q 142 413 171 426 q 200 439 239 439 q 281 439 315 423 q 349 408 372 379 q 396 351 409 311 q 421 271 421 224 z"}}}
